<svg width="34" height="41" viewBox="0 0 34 41" fill="none" xmlns="http://www.w3.org/2000/svg">
<mask id="mask0_3369_1672" style="mask-type:luminance" maskUnits="userSpaceOnUse" x="0" y="11" width="13" height="15">
<path d="M10.8837 20.0106H7.2601C6.24773 19.9928 5.2523 19.7487 4.3473 19.2964C3.44229 18.8441 2.65081 18.1951 2.0313 17.3973C1.41178 16.5995 0.98003 15.6733 0.76793 14.6871C0.555831 13.7009 0.568793 12.6798 0.805858 11.6992C-0.00168963 13.0922 0.271848 15.1067 0.312572 20.0106C0.54696 21.4346 1.25219 22.7397 2.31628 23.7189C3.38037 24.698 4.74234 25.295 6.18593 25.415H12.8653C12.2225 24.839 11.7086 24.1347 11.3571 23.3478C11.0056 22.561 10.8244 21.7092 10.8253 20.8479C10.8255 20.5679 10.8445 20.2881 10.8822 20.0106" fill="white"/>
</mask>
<g mask="url(#mask0_3369_1672)">
<path d="M12.867 11.6992H0V25.415H12.867V11.6992Z" fill="#022192"/>
</g>
<mask id="mask1_3369_1672" style="mask-type:luminance" maskUnits="userSpaceOnUse" x="21" y="16" width="13" height="14">
<path d="M23.116 21.6849H26.7395C27.752 21.7027 28.7475 21.9468 29.6526 22.3991C30.5577 22.8515 31.3492 23.5005 31.9687 24.2984C32.5883 25.0963 33.02 26.0226 33.232 27.0089C33.444 27.9952 33.431 29.0164 33.1938 29.997C34.0013 28.6032 33.7316 26.5887 33.6871 21.6849C33.4527 20.261 32.7474 18.9559 31.6833 17.9769C30.6192 16.9979 29.2572 16.4011 27.8137 16.2812H21.1328C21.7757 16.8571 22.2896 17.5615 22.6411 18.3484C22.9926 19.1353 23.1738 19.9871 23.1728 20.8483C23.1726 21.1281 23.1536 21.4076 23.116 21.6849Z" fill="white"/>
</mask>
<g mask="url(#mask1_3369_1672)">
<path d="M33.9998 16.2812H21.1328V29.997H33.9998V16.2812Z" fill="#022192"/>
</g>
<mask id="mask2_3369_1672" style="mask-type:luminance" maskUnits="userSpaceOnUse" x="0" y="21" width="34" height="19">
<path d="M26.7395 21.8845C26.7395 26.346 23.0752 29.9977 18.5949 29.9977H0.427734C1.29368 31.4917 3.40283 32.2709 8.3749 35.1304C18.3183 40.8486 15.3017 40.8486 25.2458 35.1304C30.2171 32.2709 32.3263 31.4917 33.1922 29.9977C33.4294 29.017 33.4425 27.9959 33.2304 27.0095C33.0184 26.0232 32.5867 25.0969 31.9671 24.2991C31.3476 23.5012 30.5561 22.8521 29.651 22.3998C28.7459 21.9474 27.7504 21.7033 26.738 21.6855L26.7395 21.8845Z" fill="white"/>
</mask>
<g mask="url(#mask2_3369_1672)">
<path d="M33.6724 21.6846H0.427734V40.8476H33.6724V21.6846Z" fill="url(#paint0_linear_3369_1672)"/>
</g>
<mask id="mask3_3369_1672" style="mask-type:luminance" maskUnits="userSpaceOnUse" x="0" y="2" width="34" height="19">
<path d="M7.25978 19.8114C7.25978 15.3492 10.9249 11.6983 15.4044 11.6983H33.5716C32.7056 10.2043 30.5965 9.4251 25.6252 6.56561C15.681 0.84662 18.6976 0.84662 8.75348 6.56561C3.78218 9.4251 1.67303 10.2043 0.807082 11.6983C0.570016 12.6789 0.557055 13.7 0.769154 14.6862C0.981254 15.6724 1.413 16.5986 2.03252 17.3964C2.65204 18.1942 3.44351 18.8432 4.34852 19.2955C5.25352 19.7478 6.24895 19.9919 7.26132 20.0097L7.25978 19.8114Z" fill="white"/>
</mask>
<g mask="url(#mask3_3369_1672)">
<path d="M33.5718 0.847656H0.327148V20.0107H33.5718V0.847656Z" fill="url(#paint1_linear_3369_1672)"/>
</g>
<path fill-rule="evenodd" clip-rule="evenodd" d="M17.0004 17.0684C17.7509 17.0682 18.4845 17.2897 19.1086 17.7049C19.7326 18.1202 20.219 18.7104 20.5063 19.401C20.7936 20.0916 20.8689 20.8515 20.7226 21.5847C20.5762 22.3179 20.2149 22.9914 19.6844 23.5201C19.1538 24.0487 18.4777 24.4088 17.7417 24.5547C17.0057 24.7006 16.2428 24.6258 15.5494 24.3397C14.8561 24.0537 14.2635 23.5693 13.8465 22.9477C13.4296 22.3261 13.207 21.5954 13.207 20.8479C13.2069 20.3516 13.305 19.8601 13.4956 19.4016C13.6862 18.943 13.9656 18.5264 14.3178 18.1754C14.6701 17.8244 15.0883 17.546 15.5486 17.3561C16.0089 17.1661 16.5022 17.0684 17.0004 17.0684Z" fill="#0265CD"/>
<defs>
<linearGradient id="paint0_linear_3369_1672" x1="31.4188" y1="23.3156" x2="8.51988" y2="36.0849" gradientUnits="userSpaceOnUse">
<stop stop-color="#021B8D"/>
<stop offset="1" stop-color="#0276DB"/>
</linearGradient>
<linearGradient id="paint1_linear_3369_1672" x1="2.58075" y1="18.3804" x2="25.4797" y2="5.61032" gradientUnits="userSpaceOnUse">
<stop stop-color="#021B8D"/>
<stop offset="1" stop-color="#0276DB"/>
</linearGradient>
</defs>
</svg>
