<svg width="107" height="43" viewBox="0 0 107 43" fill="none" xmlns="http://www.w3.org/2000/svg">
<path d="M57.9 15.6632L46.78 41.8232C46.6067 42.1965 46.3933 42.4765 46.14 42.6632C45.9 42.8499 45.5133 42.9432 44.98 42.9432H40.88L44.78 34.6232L36.5 15.6632H41.34C41.78 15.6632 42.12 15.7632 42.36 15.9632C42.6 16.1632 42.7733 16.3965 42.88 16.6632L46.8 26.5232C46.9467 26.9099 47.0733 27.3032 47.18 27.7032C47.3 28.0899 47.4133 28.4765 47.52 28.8632C47.76 28.0765 48.0333 27.2899 48.34 26.5032L51.98 16.6632C52.0867 16.3699 52.28 16.1299 52.56 15.9432C52.84 15.7565 53.1467 15.6632 53.48 15.6632H57.9ZM65.1891 18.0632C65.6024 17.6632 66.0291 17.2965 66.4691 16.9632C66.9224 16.6299 67.3957 16.3432 67.8891 16.1032C68.3957 15.8632 68.9357 15.6765 69.5091 15.5432C70.0957 15.4099 70.7291 15.3432 71.4091 15.3432C72.5291 15.3432 73.5224 15.5365 74.3891 15.9232C75.2557 16.3099 75.9824 16.8499 76.5691 17.5432C77.1691 18.2365 77.6157 19.0632 77.9091 20.0232C78.2157 20.9832 78.3691 22.0365 78.3691 23.1832V36.2832H72.8691V23.1832C72.8691 22.0365 72.6024 21.1499 72.0691 20.5232C71.5357 19.8832 70.7491 19.5632 69.7091 19.5632C68.9357 19.5632 68.2091 19.7299 67.5291 20.0632C66.8491 20.3965 66.2024 20.8632 65.5891 21.4632V36.2832H60.0691V15.6632H63.4691C64.1624 15.6632 64.6224 15.9832 64.8491 16.6232L65.1891 18.0632ZM97.7244 20.2632C97.5644 20.4765 97.4044 20.6432 97.2444 20.7632C97.0844 20.8699 96.8577 20.9232 96.5644 20.9232C96.2977 20.9232 96.0377 20.8499 95.7844 20.7032C95.5444 20.5432 95.2644 20.3765 94.9444 20.2032C94.6244 20.0165 94.2444 19.8499 93.8044 19.7032C93.3644 19.5432 92.8177 19.4632 92.1644 19.4632C91.3377 19.4632 90.6177 19.6165 90.0044 19.9232C89.4044 20.2165 88.9044 20.6432 88.5044 21.2032C88.1044 21.7632 87.8044 22.4432 87.6044 23.2432C87.4177 24.0432 87.3244 24.9432 87.3244 25.9432C87.3244 28.0499 87.7444 29.6632 88.5844 30.7832C89.4377 31.9032 90.5977 32.4632 92.0644 32.4632C92.571 32.4632 93.0044 32.4232 93.3644 32.3432C93.7377 32.2499 94.0577 32.1365 94.3244 32.0032C94.6044 31.8699 94.8444 31.7232 95.0444 31.5632C95.2444 31.4032 95.431 31.2565 95.6044 31.1232C95.791 30.9899 95.971 30.8832 96.1444 30.8032C96.331 30.7099 96.5377 30.6632 96.7644 30.6632C97.191 30.6632 97.5244 30.8232 97.7644 31.1432L99.3444 33.1432C98.7577 33.8232 98.131 34.3899 97.4644 34.8432C96.7977 35.2832 96.1044 35.6365 95.3844 35.9032C94.6777 36.1565 93.9577 36.3299 93.2244 36.4232C92.491 36.5299 91.7644 36.5832 91.0444 36.5832C89.7777 36.5832 88.5777 36.3499 87.4444 35.8832C86.311 35.4032 85.3177 34.7099 84.4644 33.8032C83.611 32.8965 82.931 31.7832 82.4244 30.4632C81.931 29.1432 81.6844 27.6365 81.6844 25.9432C81.6844 24.4365 81.9044 23.0365 82.3444 21.7432C82.7844 20.4499 83.431 19.3299 84.2844 18.3832C85.1377 17.4365 86.191 16.6965 87.4444 16.1632C88.711 15.6165 90.171 15.3432 91.8244 15.3432C93.3977 15.3432 94.7777 15.5965 95.9644 16.1032C97.151 16.6099 98.2177 17.3432 99.1644 18.3032L97.7244 20.2632Z" fill="url(#paint0_linear_3176_576)"/>
<path d="M57.9 15.6632L46.78 41.8232C46.6067 42.1965 46.3933 42.4765 46.14 42.6632C45.9 42.8499 45.5133 42.9432 44.98 42.9432H40.88L44.78 34.6232L36.5 15.6632H41.34C41.78 15.6632 42.12 15.7632 42.36 15.9632C42.6 16.1632 42.7733 16.3965 42.88 16.6632L46.8 26.5232C46.9467 26.9099 47.0733 27.3032 47.18 27.7032C47.3 28.0899 47.4133 28.4765 47.52 28.8632C47.76 28.0765 48.0333 27.2899 48.34 26.5032L51.98 16.6632C52.0867 16.3699 52.28 16.1299 52.56 15.9432C52.84 15.7565 53.1467 15.6632 53.48 15.6632H57.9ZM65.1891 18.0632C65.6024 17.6632 66.0291 17.2965 66.4691 16.9632C66.9224 16.6299 67.3957 16.3432 67.8891 16.1032C68.3957 15.8632 68.9357 15.6765 69.5091 15.5432C70.0957 15.4099 70.7291 15.3432 71.4091 15.3432C72.5291 15.3432 73.5224 15.5365 74.3891 15.9232C75.2557 16.3099 75.9824 16.8499 76.5691 17.5432C77.1691 18.2365 77.6157 19.0632 77.9091 20.0232C78.2157 20.9832 78.3691 22.0365 78.3691 23.1832V36.2832H72.8691V23.1832C72.8691 22.0365 72.6024 21.1499 72.0691 20.5232C71.5357 19.8832 70.7491 19.5632 69.7091 19.5632C68.9357 19.5632 68.2091 19.7299 67.5291 20.0632C66.8491 20.3965 66.2024 20.8632 65.5891 21.4632V36.2832H60.0691V15.6632H63.4691C64.1624 15.6632 64.6224 15.9832 64.8491 16.6232L65.1891 18.0632ZM97.7244 20.2632C97.5644 20.4765 97.4044 20.6432 97.2444 20.7632C97.0844 20.8699 96.8577 20.9232 96.5644 20.9232C96.2977 20.9232 96.0377 20.8499 95.7844 20.7032C95.5444 20.5432 95.2644 20.3765 94.9444 20.2032C94.6244 20.0165 94.2444 19.8499 93.8044 19.7032C93.3644 19.5432 92.8177 19.4632 92.1644 19.4632C91.3377 19.4632 90.6177 19.6165 90.0044 19.9232C89.4044 20.2165 88.9044 20.6432 88.5044 21.2032C88.1044 21.7632 87.8044 22.4432 87.6044 23.2432C87.4177 24.0432 87.3244 24.9432 87.3244 25.9432C87.3244 28.0499 87.7444 29.6632 88.5844 30.7832C89.4377 31.9032 90.5977 32.4632 92.0644 32.4632C92.571 32.4632 93.0044 32.4232 93.3644 32.3432C93.7377 32.2499 94.0577 32.1365 94.3244 32.0032C94.6044 31.8699 94.8444 31.7232 95.0444 31.5632C95.2444 31.4032 95.431 31.2565 95.6044 31.1232C95.791 30.9899 95.971 30.8832 96.1444 30.8032C96.331 30.7099 96.5377 30.6632 96.7644 30.6632C97.191 30.6632 97.5244 30.8232 97.7644 31.1432L99.3444 33.1432C98.7577 33.8232 98.131 34.3899 97.4644 34.8432C96.7977 35.2832 96.1044 35.6365 95.3844 35.9032C94.6777 36.1565 93.9577 36.3299 93.2244 36.4232C92.491 36.5299 91.7644 36.5832 91.0444 36.5832C89.7777 36.5832 88.5777 36.3499 87.4444 35.8832C86.311 35.4032 85.3177 34.7099 84.4644 33.8032C83.611 32.8965 82.931 31.7832 82.4244 30.4632C81.931 29.1432 81.6844 27.6365 81.6844 25.9432C81.6844 24.4365 81.9044 23.0365 82.3444 21.7432C82.7844 20.4499 83.431 19.3299 84.2844 18.3832C85.1377 17.4365 86.191 16.6965 87.4444 16.1632C88.711 15.6165 90.171 15.3432 91.8244 15.3432C93.3977 15.3432 94.7777 15.5965 95.9644 16.1032C97.151 16.6099 98.2177 17.3432 99.1644 18.3032L97.7244 20.2632Z" fill="url(#paint1_linear_3176_576)"/>
<g clip-path="url(#clip0_3176_576)">
<mask id="mask0_3176_576" style="mask-type:luminance" maskUnits="userSpaceOnUse" x="0" y="10" width="14" height="15">
<path d="M11.5336 19.1629H7.91C6.89763 19.1451 5.9022 18.901 4.9972 18.4487C4.09219 17.9964 3.30072 17.3474 2.6812 16.5497C2.06168 15.7519 1.62993 14.8257 1.41783 13.8395C1.20573 12.8532 1.21869 11.8321 1.45576 10.8516C0.648213 12.2446 0.921751 14.2591 0.962474 19.1629C1.19686 20.5869 1.90209 21.8921 2.96618 22.8712C4.03028 23.8504 5.39224 24.4473 6.83583 24.5673H13.5152C12.8724 23.9914 12.3585 23.287 12.007 22.5002C11.6556 21.7133 11.4743 20.8615 11.4752 20.0003C11.4754 19.7202 11.4944 19.4405 11.5321 19.1629" fill="white"/>
</mask>
<g mask="url(#mask0_3176_576)">
<path d="M13.5169 10.8516H0.649902V24.5673H13.5169V10.8516Z" fill="#022192"/>
</g>
<mask id="mask1_3176_576" style="mask-type:luminance" maskUnits="userSpaceOnUse" x="21" y="15" width="14" height="15">
<path d="M23.7659 20.8372H27.3895C28.4019 20.855 29.3974 21.0991 30.3025 21.5515C31.2076 22.0038 31.9991 22.6529 32.6186 23.4507C33.2382 24.2486 33.6699 25.1749 33.8819 26.1612C34.094 27.1476 34.0809 28.1687 33.8437 29.1494C34.6512 27.7556 34.3815 25.7411 34.337 20.8372C34.1026 19.4133 33.3973 18.1083 32.3332 17.1293C31.2691 16.1503 29.9071 15.5534 28.4636 15.4336H21.7827C22.4256 16.0095 22.9395 16.7138 23.291 17.5007C23.6425 18.2876 23.8237 19.1394 23.8227 20.0007C23.8225 20.2805 23.8035 20.56 23.7659 20.8372Z" fill="white"/>
</mask>
<g mask="url(#mask1_3176_576)">
<path d="M34.6497 15.4336H21.7827V29.1494H34.6497V15.4336Z" fill="#022192"/>
</g>
<mask id="mask2_3176_576" style="mask-type:luminance" maskUnits="userSpaceOnUse" x="1" y="20" width="34" height="19">
<path d="M27.3894 21.0369C27.3894 25.4983 23.7251 29.15 19.2448 29.15H1.07764C1.94358 30.6441 4.05273 31.4232 9.0248 34.2827C18.9682 40.0009 15.9516 40.0009 25.8957 34.2827C30.867 31.4232 32.9762 30.6441 33.8421 29.15C34.0793 28.1694 34.0924 27.1482 33.8803 26.1619C33.6683 25.1756 33.2366 24.2493 32.617 23.4514C31.9975 22.6535 31.206 22.0045 30.3009 21.5521C29.3958 21.0998 28.4003 20.8557 27.3879 20.8379L27.3894 21.0369Z" fill="white"/>
</mask>
<g mask="url(#mask2_3176_576)">
<path d="M34.3223 20.8369H1.07764V40H34.3223V20.8369Z" fill="url(#paint2_linear_3176_576)"/>
</g>
<mask id="mask3_3176_576" style="mask-type:luminance" maskUnits="userSpaceOnUse" x="1" y="1" width="34" height="19">
<path d="M7.91017 18.9638C7.91017 14.5016 11.5753 10.8506 16.0548 10.8506H34.2219C33.356 9.35661 31.2469 8.57745 26.2756 5.71795C16.3314 -0.00103581 19.348 -0.00103581 9.40387 5.71795C4.43257 8.57745 2.32342 9.35661 1.45747 10.8506C1.22041 11.8312 1.20745 12.8523 1.41954 13.8385C1.63164 14.8248 2.06339 15.751 2.68291 16.5487C3.30243 17.3465 4.0939 17.9955 4.99891 18.4478C5.90391 18.9001 6.89934 19.1442 7.91171 19.162L7.91017 18.9638Z" fill="white"/>
</mask>
<g mask="url(#mask3_3176_576)">
<path d="M34.2218 0H0.977051V19.163H34.2218V0Z" fill="url(#paint3_linear_3176_576)"/>
</g>
<path fill-rule="evenodd" clip-rule="evenodd" d="M17.6498 16.2207C18.4003 16.2206 19.1339 16.4421 19.758 16.8573C20.382 17.2725 20.8685 17.8627 21.1557 18.5533C21.443 19.2439 21.5183 20.0039 21.372 20.7371C21.2257 21.4703 20.8644 22.1438 20.3338 22.6724C19.8032 23.2011 19.1271 23.5611 18.3911 23.707C17.6551 23.8529 16.8922 23.7781 16.1988 23.4921C15.5055 23.206 14.9129 22.7216 14.4959 22.1C14.079 21.4785 13.8564 20.7477 13.8564 20.0002C13.8563 19.5039 13.9544 19.0124 14.145 18.5539C14.3356 18.0954 14.615 17.6787 14.9672 17.3277C15.3195 16.9768 15.7377 16.6984 16.198 16.5084C16.6583 16.3185 17.1516 16.2207 17.6498 16.2207Z" fill="#0265CD"/>
</g>
<defs>
<linearGradient id="paint0_linear_3176_576" x1="71.2524" y1="1.2832" x2="71.2524" y2="41.2832" gradientUnits="userSpaceOnUse">
<stop offset="0.291667" stop-color="#022C9C"/>
<stop offset="0.625" stop-color="#9645F1"/>
<stop offset="0.895833" stop-color="#0269D0"/>
</linearGradient>
<linearGradient id="paint1_linear_3176_576" x1="71.2524" y1="1.2832" x2="71.2524" y2="41.2832" gradientUnits="userSpaceOnUse">
<stop offset="0.458714" stop-color="#022C9C"/>
<stop offset="0.895833" stop-color="#0269D0"/>
</linearGradient>
<linearGradient id="paint2_linear_3176_576" x1="32.0687" y1="22.468" x2="9.16978" y2="35.2373" gradientUnits="userSpaceOnUse">
<stop stop-color="#021B8D"/>
<stop offset="1" stop-color="#0276DB"/>
</linearGradient>
<linearGradient id="paint3_linear_3176_576" x1="3.23066" y1="17.5328" x2="26.1296" y2="4.76267" gradientUnits="userSpaceOnUse">
<stop stop-color="#021B8D"/>
<stop offset="1" stop-color="#0276DB"/>
</linearGradient>
<clipPath id="clip0_3176_576">
<rect width="34" height="40" fill="white" transform="translate(0.649902)"/>
</clipPath>
</defs>
</svg>
